<svg id="Capa_1" data-name="Capa 1" xmlns="http://www.w3.org/2000/svg" viewBox="0 0 387 143"><defs><style>.cls-1,.cls-2,.cls-3,.cls-5{fill:#fff;}.cls-2,.cls-3{font-size:41px;font-family:ArialRoundedMTBold, Arial Rounded MT Bold;}.cls-3,.cls-5{stroke:#fff;stroke-miterlimit:10;}.cls-3{letter-spacing:-0.02em;}.cls-4{letter-spacing:0em;}.cls-5{fill-rule:evenodd;}</style></defs><title>logo</title><path class="cls-1" d="M76.5,11A63.5,63.5,0,1,1,13,74.5,63.58,63.58,0,0,1,76.5,11m0-4A67.5,67.5,0,1,0,144,74.5,67.5,67.5,0,0,0,76.5,7Z" transform="translate(-5 -3)"/><path class="cls-1" d="M76.5,4A70.5,70.5,0,1,1,6,74.5,70.58,70.58,0,0,1,76.5,4m0-1A71.5,71.5,0,1,0,148,74.5,71.5,71.5,0,0,0,76.5,3Z" transform="translate(-5 -3)"/><text class="cls-2" transform="translate(158.64 60.53)">MIGUEL</text><text class="cls-3" transform="translate(159.19 105.53)">J<tspan class="cls-4" x="22.48" y="0">ARDINEZ</tspan></text><path class="cls-5" d="M31.83,38h88.94a2.83,2.83,0,0,1,2.82,2.83v64.34a2.83,2.83,0,0,1-2.82,2.83H31.83A2.83,2.83,0,0,1,29,105.17V40.83A2.83,2.83,0,0,1,31.83,38Zm0,8.52a1.9,1.9,0,0,1,1.89-1.9h84.2a1.88,1.88,0,0,1,1.88,1.9v55.8a1.9,1.9,0,0,1-1.89,1.9H33.72a1.89,1.89,0,0,1-1.88-1.9Zm86.26-3.16a2,2,0,1,0-2-2A2,2,0,0,0,118.1,43.36Zm-5.49,0a2,2,0,1,0-2-2A2,2,0,0,0,112.61,43.36Zm-5.48,0a2,2,0,1,0-2-2A2,2,0,0,0,107.13,43.36ZM52.39,74.62c-.45.25-.45.65,0,.91L63,81.37a3.84,3.84,0,0,1,1.14.86,1.53,1.53,0,0,1,.29,1,1.74,1.74,0,0,1-.54,1.28,1.66,1.66,0,0,1-1.23.54,3.37,3.37,0,0,1-1.4-.51L48.38,77.36c-2.28-1.26-2.28-3.31,0-4.58l12.86-7.12a3.45,3.45,0,0,1,1.38-.5A1.83,1.83,0,0,1,64.41,67a1.54,1.54,0,0,1-.29,1,3.68,3.68,0,0,1-1.14.85ZM83.64,63.33,72.35,87.57a3.67,3.67,0,0,1-.78,1.18,1.68,1.68,0,0,1-1.08.36,1.75,1.75,0,0,1-1.25-.52,1.58,1.58,0,0,1-.52-1.16,3.66,3.66,0,0,1,.41-1.35L80.46,61.86a3.78,3.78,0,0,1,.75-1.18,1.72,1.72,0,0,1,1.09-.36,1.68,1.68,0,0,1,1.23.51A1.54,1.54,0,0,1,84.05,62a3.66,3.66,0,0,1-.41,1.35Zm17.58,11.74-11.41-6.3a3.63,3.63,0,0,1-1.15-.85,1.54,1.54,0,0,1-.28-1,1.76,1.76,0,0,1,.53-1.27,1.74,1.74,0,0,1,1.26-.53,3.47,3.47,0,0,1,1.37.5l12.86,7.12c2.28,1.27,2.29,3.32,0,4.58L91.54,84.49a3.37,3.37,0,0,1-1.37.51,1.74,1.74,0,0,1-1.26-.53,1.77,1.77,0,0,1-.53-1.29,1.53,1.53,0,0,1,.28-1,3.78,3.78,0,0,1,1.15-.86Z" transform="translate(-5 -3)"/></svg>