<?xml version="1.0" encoding="utf-8"?>
<!-- Generator: Adobe Illustrator 23.0.0, SVG Export Plug-In . SVG Version: 6.00 Build 0)  -->
<svg version="1.1" id="Capa_1" xmlns="http://www.w3.org/2000/svg" xmlns:xlink="http://www.w3.org/1999/xlink" x="0px" y="0px"
	 viewBox="0 0 512.1 512.1" style="enable-background:new 0 0 512.1 512.1;" xml:space="preserve">
<style type="text/css">
	.st0{fill:#FFFFFF;}
</style>
<g>
	<g>
		<g>
			<path class="st0" d="M418.2,58c-8.8-7.2-18-13.8-27.7-19.8l-16.8,27.2c8.5,5.2,16.6,11,24.3,17.3L418.2,58z"/>
			<path class="st0" d="M464.7,107.7c-6.6-9.3-13.8-18.1-21.6-26.4l-23.4,21.9c6.8,7.3,13.1,15,18.9,23.1L464.7,107.7z"/>
			<path class="st0" d="M482.6,136.7l-28.3,15c57.7,109.4,15.8,244.9-93.6,302.6S115.7,470.1,58,360.7S42.2,115.8,151.6,58
				c32.2-17,68.1-25.9,104.5-25.9c31.4-0.1,62.5,6.5,91.2,19.3l13.1-29.2C231.2-35.3,79.9,22.7,22.3,151.8
				c-57.6,129.1,0.4,280.5,129.6,338.1c129.1,57.6,280.5-0.4,338.1-129.6c14.6-32.8,22.2-68.3,22.2-104.2
				C512.1,214.5,501.9,173.5,482.6,136.7z"/>
			<path class="st0" d="M240.1,165.8c-12.1-13.8-29.6-21.7-48-21.7h-80v224h80c35.3,0,64-28.7,64-64c0-18.4-7.9-35.8-21.7-48
				C260.9,232.8,263.4,192.3,240.1,165.8z M192.1,336.2h-48v-64h48c17.7,0,32,14.3,32,32S209.8,336.2,192.1,336.2z M192.1,240.2h-48
				v-64h48c17.7,0,32,14.3,32,32S209.8,240.2,192.1,240.2z"/>
			<path class="st0" d="M432.1,288.2c2-41.9-30.1-77.6-72-80c-41.9,2.4-74,38.1-72,80c-2,41.9,30.1,77.6,72,80
				c18.3-0.1,35.7-7.6,48.4-20.8L385.8,325c-6.7,7-16,11.1-25.7,11.2c-18.3-1.1-33.6-14.2-37.7-32h109.7V288.2z M322.4,272.2
				c4.1-17.8,19.4-30.9,37.7-32c18.3,1.1,33.6,14.2,37.7,32H322.4z"/>
			<rect x="320.1" y="144.2" class="st0" width="80" height="32"/>
		</g>
	</g>
</g>
</svg>
