<svg id="Capa_1" data-name="Capa 1" xmlns="http://www.w3.org/2000/svg" viewBox="0 0 49 49"><defs><style>.cls-1{fill:#1c6ba0;}.cls-2{fill:#fff;}.cls-3{fill:#124591;}.cls-4{fill:#0dc915;fill-rule:evenodd;}.cls-5{font-size:10px;fill:#01456b;font-family:MicrosoftYaHeiUI, Microsoft YaHei UI;}</style></defs><title>icon</title><path class="cls-1" d="M25,1A24,24,0,1,1,1,25,24,24,0,0,1,25,1m0-.5A24.5,24.5,0,1,0,49.5,25,24.5,24.5,0,0,0,25,.5Z" transform="translate(-0.5 -0.5)"/><circle class="cls-2" cx="24.5" cy="24.5" r="22"/><path class="cls-3" d="M25,4A21,21,0,1,1,4,25,21,21,0,0,1,25,4m0-2A23,23,0,1,0,48,25,23,23,0,0,0,25,2Z" transform="translate(-0.5 -0.5)"/><path class="cls-4" d="M14.66,14H35.34a.7.7,0,0,1,.66.73V31.27a.7.7,0,0,1-.66.73H14.66a.7.7,0,0,1-.66-.73V14.73A.7.7,0,0,1,14.66,14Zm0,2.43A.46.46,0,0,1,15.1,16H34.68a.46.46,0,0,1,.44.48V30.78a.47.47,0,0,1-.44.49H15.1a.47.47,0,0,1-.44-.49Zm20-.88a.52.52,0,1,0-.47-.52A.49.49,0,0,0,34.62,15.55Zm-1.28,0a.52.52,0,1,0-.47-.52A.49.49,0,0,0,33.34,15.55Zm-1.27,0A.52.52,0,1,0,31.6,15,.49.49,0,0,0,32.07,15.55Zm-12.73,8a.12.12,0,0,0,0,.23l2.46,1.5a1.44,1.44,0,0,1,.27.22.49.49,0,0,1,.06.25.48.48,0,0,1-.12.33.4.4,0,0,1-.29.14.81.81,0,0,1-.32-.13l-3-1.84a.63.63,0,0,1,0-1.17l3-1.84a.75.75,0,0,1,.32-.12.39.39,0,0,1,.29.13.48.48,0,0,1,.12.33.49.49,0,0,1-.06.25,1.44,1.44,0,0,1-.27.22Zm7.26-2.9L24,26.92a1.15,1.15,0,0,1-.18.3.38.38,0,0,1-.25.09.36.36,0,0,1-.29-.13.41.41,0,0,1-.13-.3,1.2,1.2,0,0,1,.1-.35l2.63-6.22A1.08,1.08,0,0,1,26,20a.38.38,0,0,1,.25-.09.37.37,0,0,1,.29.13.44.44,0,0,1,.12.3,1,1,0,0,1-.1.35Zm4.09,3L28,22.09a1.17,1.17,0,0,1-.27-.22.49.49,0,0,1-.06-.25.48.48,0,0,1,.12-.33.37.37,0,0,1,.29-.13.75.75,0,0,1,.32.12l3,1.84a.63.63,0,0,1,0,1.17l-3,1.84a.81.81,0,0,1-.32.13.38.38,0,0,1-.29-.14.48.48,0,0,1-.12-.33.49.49,0,0,1,.06-.25,1.17,1.17,0,0,1,.27-.22Z" transform="translate(-0.5 -0.5)"/><rect class="cls-2" x="25.5" y="35.5" width="1" height="1"/><text class="cls-5" transform="translate(16.65 41.52) scale(1.09 1.01)">MJ</text></svg>